# Blender 3.6.5
# www.blender.org
mtllib base.mtl
o Plane
v -7.929253 0.000000 7.929253
v 7.929253 0.000000 7.929253
v -7.929253 0.000000 -7.929253
v 7.929253 0.000000 -7.929253
v 0.000000 0.000000 7.929253
v 0.000000 0.000000 -7.929253
v -7.929253 0.000000 0.000000
v 7.929253 0.000000 0.000000
v 0.000000 0.000000 0.000000
v 3.964626 0.000000 7.929253
v 3.964626 0.000000 -7.929253
v 3.964626 0.000000 0.000000
v -3.964626 0.000000 -7.929253
v -3.964626 0.000000 7.929253
v -3.964626 0.000000 0.000000
v 7.929253 0.000000 -3.964626
v 0.000000 0.000000 -3.964626
v -7.929253 0.000000 -3.964626
v 3.964626 0.000000 -3.964626
v -3.964626 0.000000 -3.964626
v -7.929253 0.000000 3.964626
v 7.929253 0.000000 3.964626
v 0.000000 0.000000 3.964626
v 3.964626 0.000000 3.964626
v -3.964626 0.000000 3.964626
v -3.964626 3.228306 -7.929253
v -7.929253 3.228306 -7.929253
v 0.000000 1.203421 -3.964626
v 0.000000 1.203421 -7.929253
v -7.929253 3.228306 -3.964626
v -7.929253 1.203421 0.000000
v -3.964626 1.203421 0.000000
v -3.964626 3.228306 -3.964626
vn -0.0000 1.0000 -0.0000
vn -1.0000 -0.0000 -0.0000
vn -0.0000 -0.0000 1.0000
vn 0.4548 0.8906 -0.0000
vn -0.0000 0.8906 0.4548
vn -0.0000 -0.0000 -1.0000
vn 1.0000 -0.0000 -0.0000
vt 2.755041 1.627520
vt 1.627520 2.755041
vt 1.627520 1.627520
vt -1.755041 -1.755041
vt 0.500000 -0.627520
vt -0.627520 0.500000
vt -0.627520 -0.627520
vt 2.755041 -0.627520
vt 1.627520 0.500000
vt 1.627520 -0.627520
vt 0.500000 0.500000
vt 0.500000 2.755041
vt 0.500000 1.627520
vt -1.755041 0.500000
vt -1.755041 -0.627520
vt -0.149546 0.500000
vt 0.037859 -0.117399
vt 0.353188 0.500000
vt -0.627520 1.627520
vt 2.755041 0.500000
vt -0.627520 -1.755041
vt 1.627520 -1.755041
vt 0.500000 -1.755041
vt 2.755041 -1.755041
vt -0.627520 2.755041
vt -1.755041 2.755041
vt -1.755041 1.627520
vt -0.149546 1.117399
vt 0.037859 1.734798
vt -0.149546 1.734798
vt -0.149547 -0.734798
vt -0.149546 -0.117399
vt 0.037859 1.117399
vt 2.755041 2.755041
vt 0.037859 -0.734798
s 0
usemtl Material
f 16/1/1 11/2/1 19/3/1
f 18/4/2 31/4/2 30/4/2
f 23/5/1 15/6/1 25/7/1
f 22/8/1 12/9/1 24/10/1
f 24/10/1 9/11/1 23/5/1
f 19/3/1 6/12/1 17/13/1
f 25/7/1 7/14/1 21/15/1
f 20/16/3 28/17/3 33/18/3
f 18/4/2 27/4/2 3/4/2
f 12/9/1 17/13/1 9/11/1
f 9/11/1 20/19/1 15/6/1
f 8/20/1 19/3/1 12/9/1
f 14/21/1 21/15/1 1/4/1
f 10/22/1 23/5/1 5/23/1
f 2/24/1 24/10/1 10/22/1
f 5/23/1 25/7/1 14/21/1
f 28/13/4 26/25/4 33/19/4
f 33/19/1 27/26/1 30/27/1
f 32/6/5 30/27/5 31/14/5
f 3/4/6 26/4/6 13/4/6
f 15/28/3 31/29/3 7/30/3
f 13/4/6 29/4/6 6/4/6
f 6/31/7 28/17/7 17/32/7
f 20/16/7 32/33/7 15/28/7
f 16/1/1 4/34/1 11/2/1
f 18/4/2 7/4/2 31/4/2
f 23/5/1 9/11/1 15/6/1
f 22/8/1 8/20/1 12/9/1
f 24/10/1 12/9/1 9/11/1
f 19/3/1 11/2/1 6/12/1
f 25/7/1 15/6/1 7/14/1
f 20/16/3 17/32/3 28/17/3
f 18/4/2 30/4/2 27/4/2
f 12/9/1 19/3/1 17/13/1
f 9/11/1 17/13/1 20/19/1
f 8/20/1 16/1/1 19/3/1
f 14/21/1 25/7/1 21/15/1
f 10/22/1 24/10/1 23/5/1
f 2/24/1 22/8/1 24/10/1
f 5/23/1 23/5/1 25/7/1
f 28/13/4 29/12/4 26/25/4
f 33/19/1 26/25/1 27/26/1
f 32/6/5 33/19/5 30/27/5
f 3/4/6 27/4/6 26/4/6
f 15/28/3 32/33/3 31/29/3
f 13/4/6 26/4/6 29/4/6
f 6/31/7 29/35/7 28/17/7
f 20/16/7 33/18/7 32/33/7
