# Blender 3.6.5
# www.blender.org
mtllib cube.mtl
o winged_victory_with_big_sword
v 1.000000 1.000000 -1.000000
v 1.000000 -1.000000 -1.000000
v 1.000000 1.000000 1.000000
v 1.000000 -1.000000 1.000000
v -1.000000 1.000000 -1.000000
v -1.000000 -1.000000 -1.000000
v -1.000000 1.000000 1.000000
v -1.000000 -1.000000 1.000000
vn -1.0000 -0.0000 -0.0000
vn -0.0000 -0.0000 -1.0000
vn 1.0000 -0.0000 -0.0000
vn -0.0000 -0.0000 1.0000
vn -0.0000 -1.0000 -0.0000
vn -0.0000 1.0000 -0.0000
vt 1.000000 1.000000
vt 0.000000 0.000000
vt 1.000000 0.000000
vt 0.000000 1.000000
s 0
usemtl Material.001
f 7/1/1 6/2/1 8/3/1
f 5/1/2 2/2/2 6/3/2
f 1/1/3 4/2/3 2/3/3
f 3/1/4 8/2/4 4/3/4
f 2/1/5 8/2/5 6/3/5
f 5/1/6 3/2/6 1/3/6
f 7/1/1 5/4/1 6/2/1
f 5/1/2 1/4/2 2/2/2
f 1/1/3 3/4/3 4/2/3
f 3/1/4 7/4/4 8/2/4
f 2/1/5 4/4/5 8/2/5
f 5/1/6 7/4/6 3/2/6
